<svg xmlns="http://www.w3.org/2000/svg" xmlns:xlink="http://www.w3.org/1999/xlink" width="300" height="300" viewBox="-2009.52 -2085.52 104112.04000000001 104180.04000000001" preserveAspectRatio="xMinYMin meet"><g transform="matrix(1,0,0,-1,0,100009.0)"><path fill-rule="evenodd" fill="#66cc99" stroke="#555555" stroke-width="694.5336000000001" opacity="0.6" d="M 97994.0,50070.0 L 97994.0,51278.0 L 97682.0,51278.0 L 97682.0,52505.0 L 97995.0,52505.0 L 97995.0,53745.0 L 98244.0,53745.0 L 98244.0,54964.0 L 98109.0,54964.0 L 98109.0,56103.0 L 97365.0,56103.0 L 97365.0,57313.0 L 97276.0,57313.0 L 97276.0,58596.0 L 97556.0,58596.0 L 97556.0,59830.0 L 97479.0,59830.0 L 97479.0,60989.0 L 97039.0,60989.0 L 97039.0,62039.0 L 96217.0,62039.0 L 96217.0,63145.0 L 95686.0,63145.0 L 95686.0,64448.0 L 95814.0,64448.0 L 95814.0,65748.0 L 95853.0,65748.0 L 95853.0,66647.0 L 94747.0,66647.0 L 94747.0,67740.0 L 94221.0,67740.0 L 94221.0,69177.0 L 94508.0,69177.0 L 94508.0,69966.0 L 93286.0,69966.0 L 93286.0,71118.0 L 92891.0,71118.0 L 92891.0,72251.0 L 92444.0,72251.0 L 92444.0,73132.0 L 91532.0,73132.0 L 91532.0,74291.0 L 91126.0,74291.0 L 91126.0,75674.0 L 91054.0,75674.0 L 91054.0,76263.0 L 89722.0,76263.0 L 89722.0,77520.0 L 89415.0,77520.0 L 89415.0,78190.0 L 88271.0,78190.0 L 88271.0,79203.0 L 87612.0,79203.0 L 87612.0,80165.0 L 86883.0,80165.0 L 86883.0,81041.0 L 86051.0,81041.0 L 86051.0,82014.0 L 85329.0,82014.0 L 85329.0,83391.0 L 85024.0,83391.0 L 85024.0,83904.0 L 83804.0,83904.0 L 83804.0,84522.0 L 82719.0,84522.0 L 82719.0,85478.0 L 81958.0,85478.0 L 81958.0,86562.0 L 81294.0,86562.0 L 81294.0,86931.0 L 80022.0,86931.0 L 80022.0,88355.0 L 79598.0,88355.0 L 79598.0,88998.0 L 78548.0,88998.0 L 78548.0,89076.0 L 77112.0,89076.0 L 77112.0,89777.0 L 76131.0,89777.0 L 76131.0,91003.0 L 75473.0,91003.0 L 75473.0,91653.0 L 74437.0,91653.0 L 74437.0,91715.0 L 73073.0,91715.0 L 73073.0,92720.0 L 72235.0,92720.0 L 72235.0,93032.0 L 71029.0,93032.0 L 71029.0,93510.0 L 69913.0,93510.0 L 69913.0,93849.0 L 68740.0,93849.0 L 68740.0,94361.0 L 67644.0,94361.0 L 67644.0,94984.0 L 66584.0,94984.0 L 66584.0,95653.0 L 65529.0,95653.0 L 65529.0,96098.0 L 64388.0,96098.0 L 64388.0,96560.0 L 63248.0,96560.0 L 63248.0,96428.0 L 61948.0,96428.0 L 61948.0,96495.0 L 60717.0,96495.0 L 60717.0,96844.0 L 59554.0,96844.0 L 59554.0,97070.0 L 58364.0,97070.0 L 58364.0,97854.0 L 57258.0,97854.0 L 57258.0,98024.0 L 56044.0,98024.0 L 56044.0,98135.0 L 54823.0,98135.0 L 54823.0,97727.0 L 53563.0,97727.0 L 53563.0,97475.0 L 52337.0,97475.0 L 52337.0,97900.0 L 51143.0,97900.0 L 51143.0,97724.0 L 49929.0,97724.0 L 49929.0,98019.0 L 48712.0,98019.0 L 48712.0,98154.0 L 47486.0,98154.0 L 47486.0,98236.0 L 46254.0,98236.0 L 46254.0,98092.0 L 45037.0,98092.0 L 45037.0,97874.0 L 43830.0,97874.0 L 43830.0,97381.0 L 42669.0,97381.0 L 42669.0,97498.0 L 41414.0,97498.0 L 41414.0,97371.0 L 40191.0,97371.0 L 40191.0,96505.0 L 39135.0,96505.0 L 39135.0,96596.0 L 37861.0,96596.0 L 37861.0,96307.0 L 36675.0,96307.0 L 36675.0,96011.0 L 35489.0,96011.0 L 35489.0,95113.0 L 34505.0,95113.0 L 34505.0,94957.0 L 33274.0,94957.0 L 33274.0,94735.0 L 32053.0,94735.0 L 32053.0,94046.0 L 31020.0,94046.0 L 31020.0,93731.0 L 29828.0,93731.0 L 29828.0,93348.0 L 28657.0,93348.0 L 28657.0,92289.0 L 27829.0,92289.0 L 27829.0,91861.0 L 26684.0,91861.0 L 26684.0,91469.0 L 25505.0,91469.0 L 25505.0,90441.0 L 24709.0,90441.0 L 24709.0,90456.0 L 23251.0,90456.0 L 23251.0,89722.0 L 22264.0,89722.0 L 22264.0,88735.0 L 21468.0,88735.0 L 21468.0,87709.0 L 20721.0,87709.0 L 20721.0,87366.0 L 19439.0,87366.0 L 19439.0,86196.0 L 18833.0,86196.0 L 18833.0,85478.0 L 17850.0,85478.0 L 17850.0,85024.0 L 16607.0,85024.0 L 16607.0,83796.0 L 16103.0,83796.0 L 16103.0,83109.0 L 15065.0,83109.0 L 15065.0,82305.0 L 14136.0,82305.0 L 14136.0,81022.0 L 13755.0,81022.0 L 13755.0,80387.0 L 12620.0,80387.0 L 12620.0,79261.0 L 12081.0,79261.0 L 12081.0,78324.0 L 11307.0,78324.0 L 11307.0,77449.0 L 10437.0,77449.0 L 10437.0,76125.0 L 10231.0,76125.0 L 10231.0,75270.0 L 9324.0,75270.0 L 9324.0,74200.0 L 8749.0,74200.0 L 8749.0,73000.0 L 8417.0,73000.0 L 8417.0,72212.0 L 7323.0,72212.0 L 7323.0,70999.0 L 7029.0,70999.0 L 7029.0,69923.0 L 6468.0,69923.0 L 6468.0,69035.0 L 5460.0,69035.0 L 5460.0,67816.0 L 5205.0,67816.0 L 5205.0,66499.0 L 5246.0,66499.0 L 5246.0,65319.0 L 4964.0,65319.0 L 4964.0,64209.0 L 4474.0,64209.0 L 4474.0,63212.0 L 3565.0,63212.0 L 3565.0,61927.0 L 3651.0,61927.0 L 3651.0,60738.0 L 3411.0,60738.0 L 3411.0,59645.0 L 2710.0,59645.0 L 2710.0,58413.0 L 2657.0,58413.0 L 2657.0,57226.0 L 2355.0,57226.0 L 2355.0,55990.0 L 2399.0,55990.0 L 2399.0,54814.0 L 1949.0,54814.0 L 1949.0,53595.0 L 1849.0,53595.0 L 1849.0,52341.0 L 2448.0,52341.0 L 2448.0,51146.0 L 1944.0,51146.0 L 1944.0,50065.0 L 94598.0,50065.0 L 94598.0,48717.0 L 2169.0,48717.0 L 2169.0,47489.0 L 1906.0,47489.0 L 1906.0,46273.0 L 1996.0,46273.0 L 1996.0,45076.0 L 2283.0,45076.0 L 2283.0,43838.0 L 2187.0,43838.0 L 2187.0,42737.0 L 3057.0,42737.0 L 3057.0,41440.0 L 2645.0,41440.0 L 2645.0,40280.0 L 3055.0,40280.0 L 3055.0,39120.0 L 3429.0,39120.0 L 3429.0,37828.0 L 3274.0,37828.0 L 3274.0,36754.0 L 3965.0,36754.0 L 3965.0,35579.0 L 4275.0,35579.0 L 4275.0,34377.0 L 4513.0,34377.0 L 4513.0,33327.0 L 5185.0,33327.0 L 5185.0,32309.0 L 5900.0,32309.0 L 5900.0,31151.0 L 6256.0,31151.0 L 6256.0,29783.0 L 6170.0,29783.0 L 6170.0,28753.0 L 6846.0,28753.0 L 6846.0,27522.0 L 7122.0,27522.0 L 7122.0,26666.0 L 8107.0,26666.0 L 8107.0,25368.0 L 8297.0,25368.0 L 8297.0,24548.0 L 9301.0,24548.0 L 9301.0,23431.0 L 9815.0,23431.0 L 9815.0,22558.0 L 10697.0,22558.0 L 10697.0,21334.0 L 11083.0,21334.0 L 11083.0,20740.0 L 12314.0,20740.0 L 12314.0,19686.0 L 12935.0,19686.0 L 12935.0,18704.0 L 13654.0,18704.0 L 13654.0,17977.0 L 14661.0,17977.0 L 14661.0,16842.0 L 15221.0,16842.0 L 15221.0,15856.0 L 15957.0,15856.0 L 15957.0,15485.0 L 17288.0,15485.0 L 17288.0,14164.0 L 17720.0,14164.0 L 17720.0,13794.0 L 19011.0,13794.0 L 19011.0,12618.0 L 19611.0,12618.0 L 19611.0,11630.0 L 20390.0,11630.0 L 20390.0,11270.0 L 21648.0,11270.0 L 21648.0,10386.0 L 22514.0,10386.0 L 22514.0,9894.0 L 23652.0,9894.0 L 23652.0,9053.0 L 24561.0,9053.0 L 24561.0,8745.0 L 25796.0,8745.0 L 25796.0,8325.0 L 26949.0,8325.0 L 26949.0,7285.0 L 27767.0,7285.0 L 27767.0,7219.0 L 29093.0,7219.0 L 29093.0,6721.0 L 30191.0,6721.0 L 30191.0,5999.0 L 31194.0,5999.0 L 31194.0,5092.0 L 32138.0,5092.0 L 32138.0,5165.0 L 33470.0,5165.0 L 33470.0,4821.0 L 34632.0,4821.0 L 34632.0,4323.0 L 35742.0,4323.0 L 35742.0,4226.0 L 36975.0,4226.0 L 36975.0,3808.0 L 38112.0,3808.0 L 38112.0,3519.0 L 39286.0,3519.0 L 39286.0,3211.0 L 40456.0,3211.0 L 40456.0,2462.0 L 41552.0,2462.0 L 41552.0,2979.0 L 42867.0,2979.0 L 42867.0,2613.0 L 44035.0,2613.0 L 44035.0,1875.0 L 45178.0,1875.0 L 45178.0,2010.0 L 46416.0,2010.0 L 46416.0,2152.0 L 47644.0,2152.0 L 47644.0,2087.0 L 48856.0,2087.0 L 48856.0,2499.0 L 50070.0,2499.0 L 50070.0,2291.0 L 51279.0,2291.0 L 51279.0,1773.0 L 52517.0,1773.0 L 52517.0,2521.0 L 53686.0,2521.0 L 53686.0,2466.0 L 54904.0,2466.0 L 54904.0,2421.0 L 56130.0,2421.0 L 56130.0,2980.0 L 57274.0,2980.0 L 57274.0,3195.0 L 58460.0,3195.0 L 58460.0,2978.0 L 59735.0,2978.0 L 59735.0,3035.0 L 60971.0,3035.0 L 60971.0,3947.0 L 61996.0,3947.0 L 61996.0,3800.0 L 63293.0,3800.0 L 63293.0,3990.0 L 64510.0,3990.0 L 64510.0,4924.0 L 65481.0,4924.0 L 65481.0,5179.0 L 66674.0,5179.0 L 66674.0,5726.0 L 67760.0,5726.0 L 67760.0,5941.0 L 68983.0,5941.0 L 68983.0,6523.0 L 70053.0,6523.0 L 70053.0,6737.0 L 71300.0,6737.0 L 71300.0,7305.0 L 72382.0,7305.0 L 72382.0,7710.0 L 73554.0,7710.0 L 73554.0,8877.0 L 74289.0,8877.0 L 74289.0,9362.0 L 75412.0,9362.0 L 75412.0,10309.0 L 76242.0,10309.0 L 76242.0,10551.0 L 77543.0,10551.0 L 77543.0,11204.0 L 78576.0,11204.0 L 78576.0,12164.0 L 79376.0,12164.0 L 79376.0,12717.0 L 80491.0,12717.0 L 80491.0,13412.0 L 81503.0,13412.0 L 81503.0,14593.0 L 82084.0,14593.0 L 82084.0,15145.0 L 83229.0,15145.0 L 83229.0,15950.0 L 84150.0,15950.0 L 84150.0,17034.0 L 84782.0,17034.0 L 84782.0,17694.0 L 85863.0,17694.0 L 85863.0,18932.0 L 86297.0,18932.0 L 86297.0,19445.0 L 87585.0,19445.0 L 87585.0,20914.0 L 87690.0,20914.0 L 87690.0,21842.0 L 88464.0,21842.0 L 88464.0,22561.0 L 89546.0,22561.0 L 89546.0,23717.0 L 90007.0,23717.0 L 90007.0,24543.0 L 90975.0,24543.0 L 90975.0,25513.0 L 91737.0,25513.0 L 91737.0,26805.0 L 91934.0,26805.0 L 91934.0,27736.0 L 92775.0,27736.0 L 92775.0,28815.0 L 93348.0,28815.0 L 93348.0,30007.0 L 93680.0,30007.0 L 93680.0,31263.0 L 93839.0,31263.0 L 93839.0,32086.0 L 95037.0,32086.0 L 95037.0,33557.0 L 94598.0,33557.0 L 94598.0,34686.0 L 95017.0,34686.0 L 95017.0,35644.0 L 95992.0,35644.0 L 95992.0,36904.0 L 96023.0,36904.0 L 96023.0,38064.0 L 96379.0,38064.0 L 96379.0,39183.0 L 96924.0,39183.0 L 96924.0,40440.0 L 96868.0,40440.0 L 96868.0,41593.0 L 97302.0,41593.0 L 97302.0,42850.0 L 97132.0,42850.0 L 97132.0,43965.0 L 97949.0,43965.0 L 97949.0,45203.0 L 97868.0,45203.0 L 97868.0,46434.0 L 97749.0,46434.0 L 97749.0,47650.0 L 97724.0,47650.0 L 97724.0,48856.0 L 97917.0,48856.0 L 97917.0,50070.0 L 97994.0,50070.0 z" /></g></svg>